<svg width="1384" height="711" viewBox="0 0 1384 711" fill="none" xmlns="http://www.w3.org/2000/svg">
<rect x="498.863" y="105.33" width="312.686" height="57" rx="28.5" transform="rotate(0.212226 498.863 105.33)" fill="#054D7D"/>
<rect x="498" y="338.419" width="233.09" height="57" rx="28.5" transform="rotate(-89.7878 498 338.419)" fill="#054D7D"/>
<rect x="881.904" y="339" width="305" height="51.3" rx="25.65" transform="rotate(-180 881.904 339)" fill="#780A83"/>
<rect x="881.904" y="106" width="232" height="57" rx="28.5" transform="rotate(90 881.904 106)" fill="#780A83"/>
<rect x="520.287" width="364.968" height="57" rx="28.5" transform="rotate(0.212226 520.287 0)" fill="#054D7D"/>
<rect x="519.804" y="131.212" width="120.213" height="57" rx="28.5" transform="rotate(-89.7878 519.804 131.212)" fill="#054D7D"/>
<path d="M54.9 523.895H167.75V543.415H54.9V523.895ZM57.34 634H34.77V420.5H181.17V440.02H57.34V634ZM284.026 635.525C270.403 635.525 258.508 632.983 248.341 627.9C238.175 622.817 230.245 615.192 224.551 605.025C219.061 594.858 216.316 582.15 216.316 566.9V473.875H237.971V564.46C237.971 581.54 242.14 594.452 250.476 603.195C259.016 611.735 270.911 616.005 286.161 616.005C297.345 616.005 307.003 613.768 315.136 609.295C323.473 604.618 329.776 597.908 334.046 589.165C338.52 580.422 340.756 569.95 340.756 557.75V473.875H362.411V634H341.671V590.08L345.026 598.01C339.943 609.803 332.013 619.055 321.236 625.765C310.663 632.272 298.26 635.525 284.026 635.525ZM465.768 635.525C452.552 635.525 440.047 633.695 428.253 630.035C416.46 626.172 407.208 621.393 400.498 615.7L410.258 598.62C416.765 603.5 425.102 607.77 435.268 611.43C445.435 614.887 456.11 616.615 467.293 616.615C482.543 616.615 493.523 614.277 500.233 609.6C506.943 604.72 510.298 598.315 510.298 590.385C510.298 584.488 508.367 579.913 504.503 576.66C500.843 573.203 495.963 570.662 489.863 569.035C483.763 567.205 476.952 565.68 469.428 564.46C461.905 563.24 454.382 561.817 446.858 560.19C439.538 558.563 432.828 556.225 426.728 553.175C420.628 549.922 415.647 545.55 411.783 540.06C408.123 534.57 406.293 527.25 406.293 518.1C406.293 509.357 408.733 501.528 413.613 494.615C418.493 487.702 425.61 482.313 434.963 478.45C444.52 474.383 456.11 472.35 469.733 472.35C480.103 472.35 490.473 473.773 500.843 476.62C511.213 479.263 519.753 482.822 526.463 487.295L517.008 504.68C509.892 499.8 502.267 496.343 494.133 494.31C486 492.073 477.867 490.955 469.733 490.955C455.297 490.955 444.622 493.497 437.708 498.58C430.998 503.46 427.643 509.763 427.643 517.49C427.643 523.59 429.473 528.368 433.133 531.825C436.997 535.282 441.978 538.027 448.078 540.06C454.382 541.89 461.193 543.415 468.513 544.635C476.037 545.855 483.458 547.38 490.778 549.21C498.302 550.837 505.113 553.175 511.213 556.225C517.517 559.072 522.498 563.24 526.158 568.73C530.022 574.017 531.953 581.032 531.953 589.775C531.953 599.128 529.31 607.262 524.023 614.175C518.94 620.885 511.417 626.172 501.453 630.035C491.693 633.695 479.798 635.525 465.768 635.525ZM571.689 634V473.875H593.344V634H571.689ZM582.669 438.495C578.196 438.495 574.434 436.97 571.384 433.92C568.334 430.87 566.809 427.21 566.809 422.94C566.809 418.67 568.334 415.112 571.384 412.265C574.434 409.215 578.196 407.69 582.669 407.69C587.142 407.69 590.904 409.113 593.954 411.96C597.004 414.807 598.529 418.365 598.529 422.635C598.529 427.108 597.004 430.87 593.954 433.92C591.107 436.97 587.346 438.495 582.669 438.495ZM718.868 635.525C703.415 635.525 689.487 632.068 677.083 625.155C664.883 618.038 655.225 608.38 648.108 596.18C640.992 583.777 637.433 569.645 637.433 553.785C637.433 537.722 640.992 523.59 648.108 511.39C655.225 499.19 664.883 489.633 677.083 482.72C689.283 475.807 703.212 472.35 718.868 472.35C734.728 472.35 748.758 475.807 760.958 482.72C773.362 489.633 783.02 499.19 789.933 511.39C797.05 523.59 800.608 537.722 800.608 553.785C800.608 569.645 797.05 583.777 789.933 596.18C783.02 608.38 773.362 618.038 760.958 625.155C748.555 632.068 734.525 635.525 718.868 635.525ZM718.868 616.31C730.458 616.31 740.727 613.768 749.673 608.685C758.62 603.398 765.635 596.078 770.718 586.725C776.005 577.168 778.648 566.188 778.648 553.785C778.648 541.178 776.005 530.198 770.718 520.845C765.635 511.492 758.62 504.273 749.673 499.19C740.727 493.903 730.56 491.26 719.173 491.26C707.787 491.26 697.62 493.903 688.673 499.19C679.727 504.273 672.61 511.492 667.323 520.845C662.037 530.198 659.393 541.178 659.393 553.785C659.393 566.188 662.037 577.168 667.323 586.725C672.61 596.078 679.727 603.398 688.673 608.685C697.62 613.768 707.685 616.31 718.868 616.31ZM926.559 472.35C939.572 472.35 950.959 474.892 960.719 479.975C970.682 484.855 978.409 492.378 983.899 502.545C989.592 512.712 992.439 525.522 992.439 540.975V634H970.784V543.11C970.784 526.233 966.514 513.525 957.974 504.985C949.637 496.242 937.844 491.87 922.594 491.87C911.207 491.87 901.244 494.208 892.704 498.885C884.367 503.358 877.861 509.967 873.184 518.71C868.711 527.25 866.474 537.62 866.474 549.82V634H844.819V473.875H865.559V517.795L862.204 509.56C867.287 497.97 875.421 488.922 886.604 482.415C897.787 475.705 911.106 472.35 926.559 472.35Z" fill="#0048B9"/>
<path d="M1075.64 515.965H1188.49V535.18H1075.64V515.965ZM1078.08 614.48H1206.48V634H1055.51V420.5H1201.91V440.02H1078.08V614.48ZM1226.09 634L1293.8 546.16L1293.5 556.835L1229.14 473.875H1253.54L1306.31 542.5L1297.16 542.195L1349.92 473.875H1373.71L1308.75 557.75L1309.05 546.16L1377.37 634H1352.67L1296.85 560.8L1305.39 562.02L1250.49 634H1226.09Z" fill="#800080"/>
</svg>
